<svg id="Ebene_1" data-name="Ebene 1" xmlns="http://www.w3.org/2000/svg" viewBox="0 0 115.38298 94.85349"><defs><style>.cls-1{fill:#8aaf13;}.cls-1,.cls-2,.cls-3,.cls-4,.cls-5,.cls-6,.cls-7{stroke:#1d1d1b;}.cls-1,.cls-3,.cls-4,.cls-5,.cls-6{stroke-width:2.83465px;}.cls-2,.cls-6{fill:#016196;}.cls-2,.cls-3,.cls-4,.cls-5,.cls-6,.cls-7{stroke-miterlimit:10;}.cls-3{fill:none;}.cls-4{fill:#1d1d1b;}.cls-5,.cls-7{fill:#fff;}.cls-7{stroke-width:1.41732px;}</style></defs><title>icon</title><rect class="cls-1" x="14.62766" y="20.41489" width="86.12766" height="73.02128" rx="17.95745"/><path class="cls-1" d="M11.734,47.04448h2.89362a0,0,0,0,1,0,0V69.853a0,0,0,0,1,0,0H11.734a5.10638,5.10638,0,0,1-5.10638-5.10638V52.15086A5.10638,5.10638,0,0,1,11.734,47.04448Z"/><path class="cls-2" d="M3.86606,51.71662H5.60638a0,0,0,0,1,0,0V63.38491a0,0,0,0,1,0,0H3.86606A3.36606,3.36606,0,0,1,.5,60.01885V55.08268a3.36606,3.36606,0,0,1,3.36606-3.36606Z"/><path class="cls-1" d="M106.21277,48.37862h2.89362a0,0,0,0,1,0,0V71.18713a0,0,0,0,1,0,0h-2.89362a5.10638,5.10638,0,0,1-5.10638-5.10638V53.485a5.10638,5.10638,0,0,1,5.10638-5.10638Z" transform="translate(209.8617 119.12959) rotate(-180)"/><path class="cls-2" d="M113.49372,53.05076H115.234a0,0,0,0,1,0,0V64.719a0,0,0,0,1,0,0h-1.74033a3.36606,3.36606,0,0,1-3.36606-3.36606V56.41682A3.36606,3.36606,0,0,1,113.49372,53.05076Z" transform="translate(225.01064 117.33364) rotate(-180)"/><circle class="cls-2" cx="56.98886" cy="4.71277" r="4.21277"/><line class="cls-3" x1="56.98886" y1="20.41489" x2="56.98886" y2="8.92553"/><rect class="cls-4" x="31.64894" y="62.45745" width="50.89362" height="19.31915" rx="2.80851"/><circle class="cls-5" cx="39.1383" cy="40.07447" r="9.76596"/><circle class="cls-5" cx="75.73404" cy="40.07447" r="9.76596"/><circle class="cls-6" cx="75.73404" cy="40.07447" r="3.31915"/><circle class="cls-6" cx="39.1383" cy="40.07447" r="3.31915"/><rect class="cls-7" x="33.2234" y="64.32108" width="7.66393" height="7.66393"/><rect class="cls-7" x="42.90426" y="64.32108" width="7.66393" height="7.66393"/><rect class="cls-7" x="53.8617" y="64.32325" width="7.65957" height="7.65957"/><rect class="cls-7" x="63.60638" y="64.32325" width="7.65957" height="7.65957"/><rect class="cls-7" x="73.75532" y="64.32325" width="7.66175" height="7.66175"/><rect class="cls-7" x="33.2234" y="73.71277" width="7.66393" height="7.66393"/><rect class="cls-7" x="42.90426" y="73.71277" width="7.66393" height="7.66393"/><rect class="cls-7" x="53.85952" y="73.71277" width="7.66393" height="7.66393"/><rect class="cls-7" x="63.60638" y="73.71494" width="7.65957" height="7.65957"/><rect class="cls-7" x="73.75532" y="73.71494" width="7.65957" height="7.65957"/></svg>